<mxfile host="app.diagrams.net" agent="Mozilla/5.0 (Windows NT 10.0; Win64; x64) AppleWebKit/537.36 (KHTML, like Gecko) Chrome/131.0.0.0 Safari/537.36" version="25.0.3">
  <diagram name="Seite-1" id="6cpD0w6-vyRRh-9QxJS-">
    <mxGraphModel dx="691" dy="366" grid="1" gridSize="10" guides="1" tooltips="1" connect="1" arrows="1" fold="1" page="1" pageScale="1" pageWidth="827" pageHeight="1169" math="0" shadow="0">
      <root>
        <mxCell id="0" />
        <mxCell id="1" parent="0" />
        <mxCell id="lJ_nsVY0tb8pN7J3Tzo3-18" style="edgeStyle=orthogonalEdgeStyle;rounded=0;orthogonalLoop=1;jettySize=auto;html=1;entryX=0.5;entryY=0;entryDx=0;entryDy=0;" edge="1" parent="1" source="lJ_nsVY0tb8pN7J3Tzo3-3" target="lJ_nsVY0tb8pN7J3Tzo3-6">
          <mxGeometry relative="1" as="geometry">
            <Array as="points">
              <mxPoint x="414" y="190" />
              <mxPoint x="379" y="190" />
            </Array>
          </mxGeometry>
        </mxCell>
        <mxCell id="lJ_nsVY0tb8pN7J3Tzo3-20" style="edgeStyle=orthogonalEdgeStyle;rounded=0;orthogonalLoop=1;jettySize=auto;html=1;entryX=0.5;entryY=0;entryDx=0;entryDy=0;exitX=0.5;exitY=1;exitDx=0;exitDy=0;" edge="1" parent="1" source="lJ_nsVY0tb8pN7J3Tzo3-3" target="lJ_nsVY0tb8pN7J3Tzo3-4">
          <mxGeometry relative="1" as="geometry">
            <Array as="points">
              <mxPoint x="414" y="190" />
              <mxPoint x="309" y="190" />
            </Array>
          </mxGeometry>
        </mxCell>
        <mxCell id="lJ_nsVY0tb8pN7J3Tzo3-21" style="edgeStyle=orthogonalEdgeStyle;rounded=0;orthogonalLoop=1;jettySize=auto;html=1;entryX=0.5;entryY=0;entryDx=0;entryDy=0;" edge="1" parent="1" source="lJ_nsVY0tb8pN7J3Tzo3-3" target="lJ_nsVY0tb8pN7J3Tzo3-5">
          <mxGeometry relative="1" as="geometry">
            <Array as="points">
              <mxPoint x="414" y="190" />
              <mxPoint x="449" y="190" />
            </Array>
          </mxGeometry>
        </mxCell>
        <mxCell id="lJ_nsVY0tb8pN7J3Tzo3-22" style="edgeStyle=orthogonalEdgeStyle;rounded=0;orthogonalLoop=1;jettySize=auto;html=1;entryX=0.5;entryY=0;entryDx=0;entryDy=0;exitX=0.5;exitY=1;exitDx=0;exitDy=0;" edge="1" parent="1" source="lJ_nsVY0tb8pN7J3Tzo3-3" target="lJ_nsVY0tb8pN7J3Tzo3-7">
          <mxGeometry relative="1" as="geometry">
            <Array as="points">
              <mxPoint x="414" y="190" />
              <mxPoint x="519" y="190" />
            </Array>
          </mxGeometry>
        </mxCell>
        <mxCell id="lJ_nsVY0tb8pN7J3Tzo3-3" value="git-clone" style="rounded=1;whiteSpace=wrap;html=1;" vertex="1" parent="1">
          <mxGeometry x="384" y="130" width="60" height="30" as="geometry" />
        </mxCell>
        <mxCell id="lJ_nsVY0tb8pN7J3Tzo3-23" style="edgeStyle=orthogonalEdgeStyle;rounded=0;orthogonalLoop=1;jettySize=auto;html=1;entryX=0.5;entryY=0;entryDx=0;entryDy=0;" edge="1" parent="1" source="lJ_nsVY0tb8pN7J3Tzo3-4" target="lJ_nsVY0tb8pN7J3Tzo3-10">
          <mxGeometry relative="1" as="geometry" />
        </mxCell>
        <mxCell id="lJ_nsVY0tb8pN7J3Tzo3-4" value="git-quick-stats" style="rounded=1;whiteSpace=wrap;html=1;" vertex="1" parent="1">
          <mxGeometry x="279" y="210" width="60" height="30" as="geometry" />
        </mxCell>
        <mxCell id="lJ_nsVY0tb8pN7J3Tzo3-38" style="edgeStyle=orthogonalEdgeStyle;rounded=0;orthogonalLoop=1;jettySize=auto;html=1;entryX=0.5;entryY=0;entryDx=0;entryDy=0;" edge="1" parent="1" source="lJ_nsVY0tb8pN7J3Tzo3-5" target="lJ_nsVY0tb8pN7J3Tzo3-11">
          <mxGeometry relative="1" as="geometry">
            <Array as="points">
              <mxPoint x="449" y="340" />
              <mxPoint x="414" y="340" />
            </Array>
          </mxGeometry>
        </mxCell>
        <mxCell id="lJ_nsVY0tb8pN7J3Tzo3-5" value="CFF" style="rounded=1;whiteSpace=wrap;html=1;" vertex="1" parent="1">
          <mxGeometry x="419" y="210" width="60" height="30" as="geometry" />
        </mxCell>
        <mxCell id="lJ_nsVY0tb8pN7J3Tzo3-37" style="edgeStyle=orthogonalEdgeStyle;rounded=0;orthogonalLoop=1;jettySize=auto;html=1;entryX=0.5;entryY=0;entryDx=0;entryDy=0;" edge="1" parent="1" source="lJ_nsVY0tb8pN7J3Tzo3-6" target="lJ_nsVY0tb8pN7J3Tzo3-11">
          <mxGeometry relative="1" as="geometry">
            <Array as="points">
              <mxPoint x="379" y="340" />
              <mxPoint x="414" y="340" />
            </Array>
          </mxGeometry>
        </mxCell>
        <mxCell id="lJ_nsVY0tb8pN7J3Tzo3-6" value="BibTeX" style="rounded=1;whiteSpace=wrap;html=1;" vertex="1" parent="1">
          <mxGeometry x="349" y="210" width="60" height="30" as="geometry" />
        </mxCell>
        <mxCell id="lJ_nsVY0tb8pN7J3Tzo3-42" style="edgeStyle=orthogonalEdgeStyle;rounded=0;orthogonalLoop=1;jettySize=auto;html=1;entryX=0.5;entryY=0;entryDx=0;entryDy=0;exitX=0.5;exitY=1;exitDx=0;exitDy=0;" edge="1" parent="1" source="lJ_nsVY0tb8pN7J3Tzo3-7" target="lJ_nsVY0tb8pN7J3Tzo3-11">
          <mxGeometry relative="1" as="geometry">
            <Array as="points">
              <mxPoint x="519" y="340" />
              <mxPoint x="414" y="340" />
            </Array>
          </mxGeometry>
        </mxCell>
        <mxCell id="lJ_nsVY0tb8pN7J3Tzo3-7" value="README" style="rounded=1;whiteSpace=wrap;html=1;" vertex="1" parent="1">
          <mxGeometry x="489" y="210" width="60" height="30" as="geometry" />
        </mxCell>
        <mxCell id="lJ_nsVY0tb8pN7J3Tzo3-25" style="edgeStyle=orthogonalEdgeStyle;rounded=0;orthogonalLoop=1;jettySize=auto;html=1;entryX=0;entryY=0.75;entryDx=0;entryDy=0;exitX=0.5;exitY=1;exitDx=0;exitDy=0;" edge="1" parent="1" source="lJ_nsVY0tb8pN7J3Tzo3-8" target="lJ_nsVY0tb8pN7J3Tzo3-11">
          <mxGeometry relative="1" as="geometry" />
        </mxCell>
        <mxCell id="lJ_nsVY0tb8pN7J3Tzo3-8" value="Beschrei-bung" style="rounded=1;whiteSpace=wrap;html=1;" vertex="1" parent="1">
          <mxGeometry x="179" y="210" width="60" height="30" as="geometry" />
        </mxCell>
        <mxCell id="lJ_nsVY0tb8pN7J3Tzo3-26" style="edgeStyle=orthogonalEdgeStyle;rounded=0;orthogonalLoop=1;jettySize=auto;html=1;entryX=1;entryY=0.75;entryDx=0;entryDy=0;exitX=0.5;exitY=1;exitDx=0;exitDy=0;" edge="1" parent="1" source="lJ_nsVY0tb8pN7J3Tzo3-9" target="lJ_nsVY0tb8pN7J3Tzo3-11">
          <mxGeometry relative="1" as="geometry" />
        </mxCell>
        <mxCell id="lJ_nsVY0tb8pN7J3Tzo3-9" value="Beschrei-bung" style="rounded=1;whiteSpace=wrap;html=1;" vertex="1" parent="1">
          <mxGeometry x="590" y="210" width="60" height="30" as="geometry" />
        </mxCell>
        <mxCell id="lJ_nsVY0tb8pN7J3Tzo3-35" style="edgeStyle=orthogonalEdgeStyle;rounded=0;orthogonalLoop=1;jettySize=auto;html=1;entryX=0.5;entryY=0;entryDx=0;entryDy=0;exitX=0.5;exitY=1;exitDx=0;exitDy=0;" edge="1" parent="1" source="lJ_nsVY0tb8pN7J3Tzo3-10" target="lJ_nsVY0tb8pN7J3Tzo3-11">
          <mxGeometry relative="1" as="geometry">
            <Array as="points">
              <mxPoint x="309" y="340" />
              <mxPoint x="414" y="340" />
            </Array>
          </mxGeometry>
        </mxCell>
        <mxCell id="lJ_nsVY0tb8pN7J3Tzo3-10" value="Gruppie-rung" style="rounded=1;whiteSpace=wrap;html=1;" vertex="1" parent="1">
          <mxGeometry x="279" y="290" width="60" height="30" as="geometry" />
        </mxCell>
        <mxCell id="lJ_nsVY0tb8pN7J3Tzo3-64" style="edgeStyle=orthogonalEdgeStyle;rounded=0;orthogonalLoop=1;jettySize=auto;html=1;" edge="1" parent="1" source="lJ_nsVY0tb8pN7J3Tzo3-11">
          <mxGeometry relative="1" as="geometry">
            <mxPoint x="414" y="471" as="targetPoint" />
          </mxGeometry>
        </mxCell>
        <mxCell id="lJ_nsVY0tb8pN7J3Tzo3-11" value="Abgleich" style="rounded=1;whiteSpace=wrap;html=1;" vertex="1" parent="1">
          <mxGeometry x="384" y="391" width="60" height="30" as="geometry" />
        </mxCell>
        <mxCell id="lJ_nsVY0tb8pN7J3Tzo3-34" value="Repository" style="text;html=1;align=center;verticalAlign=middle;whiteSpace=wrap;rounded=0;" vertex="1" parent="1">
          <mxGeometry x="414" y="160" width="66" height="30" as="geometry" />
        </mxCell>
        <mxCell id="lJ_nsVY0tb8pN7J3Tzo3-43" value="Autoren" style="text;html=1;align=center;verticalAlign=middle;whiteSpace=wrap;rounded=0;" vertex="1" parent="1">
          <mxGeometry x="414" y="340" width="51" height="30" as="geometry" />
        </mxCell>
        <mxCell id="lJ_nsVY0tb8pN7J3Tzo3-44" value="Autoren" style="text;html=1;align=center;verticalAlign=middle;whiteSpace=wrap;rounded=0;" vertex="1" parent="1">
          <mxGeometry x="310" y="250" width="50" height="30" as="geometry" />
        </mxCell>
        <mxCell id="lJ_nsVY0tb8pN7J3Tzo3-49" style="edgeStyle=orthogonalEdgeStyle;rounded=0;orthogonalLoop=1;jettySize=auto;html=1;entryX=0.5;entryY=0;entryDx=0;entryDy=0;exitX=0;exitY=0.5;exitDx=0;exitDy=0;" edge="1" parent="1" source="lJ_nsVY0tb8pN7J3Tzo3-45" target="lJ_nsVY0tb8pN7J3Tzo3-8">
          <mxGeometry relative="1" as="geometry" />
        </mxCell>
        <mxCell id="lJ_nsVY0tb8pN7J3Tzo3-52" style="edgeStyle=orthogonalEdgeStyle;rounded=0;orthogonalLoop=1;jettySize=auto;html=1;entryX=0;entryY=0.25;entryDx=0;entryDy=0;exitX=0.5;exitY=1;exitDx=0;exitDy=0;" edge="1" parent="1" source="lJ_nsVY0tb8pN7J3Tzo3-45" target="lJ_nsVY0tb8pN7J3Tzo3-11">
          <mxGeometry relative="1" as="geometry" />
        </mxCell>
        <mxCell id="lJ_nsVY0tb8pN7J3Tzo3-53" style="edgeStyle=orthogonalEdgeStyle;rounded=0;orthogonalLoop=1;jettySize=auto;html=1;entryX=0.5;entryY=0;entryDx=0;entryDy=0;" edge="1" parent="1" source="lJ_nsVY0tb8pN7J3Tzo3-45" target="lJ_nsVY0tb8pN7J3Tzo3-3">
          <mxGeometry relative="1" as="geometry" />
        </mxCell>
        <mxCell id="lJ_nsVY0tb8pN7J3Tzo3-45" value="PyPI" style="rounded=1;whiteSpace=wrap;html=1;" vertex="1" parent="1">
          <mxGeometry x="230" y="50" width="60" height="30" as="geometry" />
        </mxCell>
        <mxCell id="lJ_nsVY0tb8pN7J3Tzo3-51" style="edgeStyle=orthogonalEdgeStyle;rounded=0;orthogonalLoop=1;jettySize=auto;html=1;entryX=1;entryY=0.25;entryDx=0;entryDy=0;exitX=0.5;exitY=1;exitDx=0;exitDy=0;" edge="1" parent="1" source="lJ_nsVY0tb8pN7J3Tzo3-46" target="lJ_nsVY0tb8pN7J3Tzo3-11">
          <mxGeometry relative="1" as="geometry" />
        </mxCell>
        <mxCell id="lJ_nsVY0tb8pN7J3Tzo3-54" style="edgeStyle=orthogonalEdgeStyle;rounded=0;orthogonalLoop=1;jettySize=auto;html=1;" edge="1" parent="1" source="lJ_nsVY0tb8pN7J3Tzo3-46" target="lJ_nsVY0tb8pN7J3Tzo3-3">
          <mxGeometry relative="1" as="geometry" />
        </mxCell>
        <mxCell id="lJ_nsVY0tb8pN7J3Tzo3-56" style="edgeStyle=orthogonalEdgeStyle;rounded=0;orthogonalLoop=1;jettySize=auto;html=1;entryX=0.5;entryY=0;entryDx=0;entryDy=0;exitX=1;exitY=0.5;exitDx=0;exitDy=0;" edge="1" parent="1" source="lJ_nsVY0tb8pN7J3Tzo3-46" target="lJ_nsVY0tb8pN7J3Tzo3-9">
          <mxGeometry relative="1" as="geometry" />
        </mxCell>
        <mxCell id="lJ_nsVY0tb8pN7J3Tzo3-46" value="CRAN" style="rounded=1;whiteSpace=wrap;html=1;" vertex="1" parent="1">
          <mxGeometry x="540" y="50" width="60" height="30" as="geometry" />
        </mxCell>
        <mxCell id="lJ_nsVY0tb8pN7J3Tzo3-55" value="URL" style="text;html=1;align=center;verticalAlign=middle;whiteSpace=wrap;rounded=0;" vertex="1" parent="1">
          <mxGeometry x="409" y="100" width="41" height="30" as="geometry" />
        </mxCell>
        <mxCell id="lJ_nsVY0tb8pN7J3Tzo3-57" value="(verifizierte) Autoren/ Maintainer" style="text;html=1;align=center;verticalAlign=middle;whiteSpace=wrap;rounded=0;" vertex="1" parent="1">
          <mxGeometry x="260" y="371" width="122" height="30" as="geometry" />
        </mxCell>
        <mxCell id="lJ_nsVY0tb8pN7J3Tzo3-58" value="&lt;div&gt;&lt;span style=&quot;background-color: initial;&quot;&gt;Autoren/&amp;nbsp;&lt;/span&gt;&lt;/div&gt;&lt;div&gt;&lt;span style=&quot;background-color: initial;&quot;&gt;Maintainer&lt;/span&gt;&lt;/div&gt;" style="text;html=1;align=center;verticalAlign=middle;whiteSpace=wrap;rounded=0;" vertex="1" parent="1">
          <mxGeometry x="510" y="371" width="62" height="30" as="geometry" />
        </mxCell>
        <mxCell id="lJ_nsVY0tb8pN7J3Tzo3-62" value="Autoren" style="text;html=1;align=center;verticalAlign=middle;whiteSpace=wrap;rounded=0;" vertex="1" parent="1">
          <mxGeometry x="209" y="391" width="51" height="30" as="geometry" />
        </mxCell>
        <mxCell id="lJ_nsVY0tb8pN7J3Tzo3-63" value="Autoren" style="text;html=1;align=center;verticalAlign=middle;whiteSpace=wrap;rounded=0;" vertex="1" parent="1">
          <mxGeometry x="572" y="391" width="51" height="30" as="geometry" />
        </mxCell>
        <mxCell id="lJ_nsVY0tb8pN7J3Tzo3-65" value="Ergebnis" style="text;html=1;align=center;verticalAlign=middle;whiteSpace=wrap;rounded=0;" vertex="1" parent="1">
          <mxGeometry x="414" y="431" width="51" height="30" as="geometry" />
        </mxCell>
      </root>
    </mxGraphModel>
  </diagram>
</mxfile>
